<svg width="138" height="55" viewBox="0 0 138 55" fill="none" xmlns="http://www.w3.org/2000/svg">
<path d="M41.7216 37V19.5455H44.8835V27.5653H45.0966L51.9062 19.5455H55.767L49.017 27.3778L55.8267 37H52.0256L46.8182 29.517L44.8835 31.8011V37H41.7216ZM61.5945 37.2642C60.7649 37.2642 60.0178 37.1165 59.353 36.821C58.6939 36.5199 58.1712 36.0767 57.7848 35.4915C57.4041 34.9062 57.2138 34.1847 57.2138 33.3267C57.2138 32.5881 57.3501 31.9773 57.6229 31.4943C57.8956 31.0114 58.2678 30.625 58.7393 30.3352C59.2109 30.0455 59.7422 29.8267 60.3331 29.679C60.9297 29.5256 61.5462 29.4148 62.1825 29.3466C62.9496 29.267 63.5717 29.196 64.049 29.1335C64.5263 29.0653 64.8729 28.9631 65.0888 28.8267C65.3104 28.6847 65.4212 28.4659 65.4212 28.1705V28.1193C65.4212 27.4773 65.2308 26.9801 64.8501 26.6278C64.4695 26.2756 63.9212 26.0994 63.2053 26.0994C62.4496 26.0994 61.8501 26.2642 61.407 26.5938C60.9695 26.9233 60.674 27.3125 60.5206 27.7614L57.6399 27.3523C57.8672 26.5568 58.2422 25.892 58.7649 25.358C59.2876 24.8182 59.9268 24.4148 60.6825 24.1477C61.4382 23.875 62.2734 23.7386 63.1882 23.7386C63.8189 23.7386 64.4467 23.8125 65.0717 23.9602C65.6967 24.108 66.2678 24.3523 66.7848 24.6932C67.3018 25.0284 67.7166 25.4858 68.0291 26.0653C68.3473 26.6449 68.5064 27.3693 68.5064 28.2386V37H65.5405V35.2017H65.4382C65.2507 35.5653 64.9865 35.9062 64.6456 36.2244C64.3104 36.5369 63.8871 36.7898 63.3757 36.983C62.87 37.1705 62.2763 37.2642 61.5945 37.2642ZM62.3956 34.9972C63.0149 34.9972 63.5518 34.875 64.0064 34.6307C64.4609 34.3807 64.8104 34.0511 65.0547 33.642C65.3047 33.233 65.4297 32.7869 65.4297 32.304V30.7614C65.3331 30.8409 65.1683 30.9148 64.9354 30.983C64.7081 31.0511 64.4524 31.1108 64.1683 31.1619C63.8842 31.2131 63.603 31.2585 63.3246 31.2983C63.0462 31.3381 62.8047 31.3722 62.6001 31.4006C62.1399 31.4631 61.728 31.5653 61.3643 31.7074C61.0007 31.8494 60.7138 32.0483 60.5036 32.304C60.2933 32.554 60.1882 32.8778 60.1882 33.2756C60.1882 33.8438 60.3956 34.2727 60.8104 34.5625C61.2251 34.8523 61.7536 34.9972 62.3956 34.9972ZM71.6087 37V23.9091H74.6001V26.0909H74.7365C74.9751 25.3352 75.3842 24.7528 75.9638 24.3438C76.549 23.929 77.2166 23.7216 77.9666 23.7216C78.1371 23.7216 78.3274 23.7301 78.5376 23.7472C78.7536 23.7585 78.9325 23.7784 79.0746 23.8068V26.6449C78.9439 26.5994 78.7365 26.5597 78.4524 26.5256C78.174 26.4858 77.9041 26.4659 77.6428 26.4659C77.0803 26.4659 76.5746 26.5881 76.1257 26.8324C75.6825 27.071 75.3331 27.4034 75.0774 27.8295C74.8217 28.2557 74.6939 28.7472 74.6939 29.304V37H71.6087ZM88.3643 23.9091V26.2955H80.8388V23.9091H88.3643ZM82.6967 20.7727H85.782V33.0625C85.782 33.4773 85.8445 33.7955 85.9695 34.017C86.1001 34.233 86.2706 34.3807 86.4808 34.4602C86.6911 34.5398 86.924 34.5795 87.1797 34.5795C87.3729 34.5795 87.549 34.5653 87.7081 34.5369C87.8729 34.5085 87.9979 34.483 88.0831 34.4602L88.603 36.8722C88.4382 36.929 88.2024 36.9915 87.8956 37.0597C87.5945 37.1278 87.2251 37.1676 86.7876 37.179C86.0149 37.2017 85.3189 37.0852 84.6996 36.8295C84.0803 36.5682 83.5888 36.1648 83.2251 35.6193C82.8672 35.0739 82.6911 34.392 82.6967 33.5739V20.7727ZM94.7116 37.2642C93.8821 37.2642 93.1349 37.1165 92.4702 36.821C91.8111 36.5199 91.2884 36.0767 90.902 35.4915C90.5213 34.9062 90.331 34.1847 90.331 33.3267C90.331 32.5881 90.4673 31.9773 90.7401 31.4943C91.0128 31.0114 91.3849 30.625 91.8565 30.3352C92.3281 30.0455 92.8594 29.8267 93.4503 29.679C94.0469 29.5256 94.6634 29.4148 95.2997 29.3466C96.0668 29.267 96.6889 29.196 97.1662 29.1335C97.6435 29.0653 97.9901 28.9631 98.206 28.8267C98.4276 28.6847 98.5384 28.4659 98.5384 28.1705V28.1193C98.5384 27.4773 98.348 26.9801 97.9673 26.6278C97.5866 26.2756 97.0384 26.0994 96.3224 26.0994C95.5668 26.0994 94.9673 26.2642 94.5241 26.5938C94.0866 26.9233 93.7912 27.3125 93.6378 27.7614L90.7571 27.3523C90.9844 26.5568 91.3594 25.892 91.8821 25.358C92.4048 24.8182 93.044 24.4148 93.7997 24.1477C94.5554 23.875 95.3906 23.7386 96.3054 23.7386C96.9361 23.7386 97.5639 23.8125 98.1889 23.9602C98.8139 24.108 99.3849 24.3523 99.902 24.6932C100.419 25.0284 100.834 25.4858 101.146 26.0653C101.464 26.6449 101.624 27.3693 101.624 28.2386V37H98.6577V35.2017H98.5554C98.3679 35.5653 98.1037 35.9062 97.7628 36.2244C97.4276 36.5369 97.0043 36.7898 96.4929 36.983C95.9872 37.1705 95.3935 37.2642 94.7116 37.2642ZM95.5128 34.9972C96.1321 34.9972 96.669 34.875 97.1236 34.6307C97.5781 34.3807 97.9276 34.0511 98.1719 33.642C98.4219 33.233 98.5469 32.7869 98.5469 32.304V30.7614C98.4503 30.8409 98.2855 30.9148 98.0526 30.983C97.8253 31.0511 97.5696 31.1108 97.2855 31.1619C97.0014 31.2131 96.7202 31.2585 96.4418 31.2983C96.1634 31.3381 95.9219 31.3722 95.7173 31.4006C95.2571 31.4631 94.8452 31.5653 94.4815 31.7074C94.1179 31.8494 93.831 32.0483 93.6207 32.304C93.4105 32.554 93.3054 32.8778 93.3054 33.2756C93.3054 33.8438 93.5128 34.2727 93.9276 34.5625C94.3423 34.8523 94.8707 34.9972 95.5128 34.9972ZM107.811 19.5455V37H104.726V19.5455H107.811ZM110.984 37V23.9091H114.069V37H110.984ZM112.535 22.0511C112.046 22.0511 111.626 21.8892 111.273 21.5653C110.921 21.2358 110.745 20.8409 110.745 20.3807C110.745 19.9148 110.921 19.5199 111.273 19.196C111.626 18.8665 112.046 18.7017 112.535 18.7017C113.029 18.7017 113.45 18.8665 113.796 19.196C114.148 19.5199 114.325 19.9148 114.325 20.3807C114.325 20.8409 114.148 21.2358 113.796 21.5653C113.45 21.8892 113.029 22.0511 112.535 22.0511ZM127.588 27.3693L124.776 27.6761C124.696 27.392 124.557 27.125 124.358 26.875C124.165 26.625 123.903 26.4233 123.574 26.2699C123.244 26.1165 122.841 26.0398 122.364 26.0398C121.722 26.0398 121.182 26.179 120.744 26.4574C120.312 26.7358 120.099 27.0966 120.105 27.5398C120.099 27.9205 120.239 28.2301 120.523 28.4688C120.813 28.7074 121.29 28.9034 121.955 29.0568L124.188 29.5341C125.426 29.8011 126.347 30.2244 126.949 30.804C127.557 31.3835 127.864 32.142 127.869 33.0795C127.864 33.9034 127.622 34.6307 127.145 35.2614C126.673 35.8864 126.017 36.375 125.176 36.7273C124.335 37.0795 123.369 37.2557 122.278 37.2557C120.676 37.2557 119.386 36.9205 118.409 36.25C117.432 35.5739 116.849 34.6335 116.662 33.429L119.67 33.1392C119.807 33.7301 120.097 34.1761 120.54 34.4773C120.983 34.7784 121.56 34.929 122.27 34.929C123.003 34.929 123.591 34.7784 124.034 34.4773C124.483 34.1761 124.707 33.804 124.707 33.3608C124.707 32.9858 124.563 32.6761 124.273 32.4318C123.989 32.1875 123.545 32 122.943 31.8693L120.71 31.4006C119.455 31.1392 118.526 30.6989 117.923 30.0795C117.321 29.4545 117.023 28.6648 117.028 27.7102C117.023 26.9034 117.241 26.2045 117.685 25.6136C118.134 25.017 118.756 24.5568 119.551 24.233C120.352 23.9034 121.276 23.7386 122.321 23.7386C123.855 23.7386 125.063 24.0653 125.943 24.7188C126.83 25.3722 127.378 26.2557 127.588 27.3693ZM136.95 23.9091V26.2955H129.425V23.9091H136.95ZM131.283 20.7727H134.368V33.0625C134.368 33.4773 134.43 33.7955 134.555 34.017C134.686 34.233 134.857 34.3807 135.067 34.4602C135.277 34.5398 135.51 34.5795 135.766 34.5795C135.959 34.5795 136.135 34.5653 136.294 34.5369C136.459 34.5085 136.584 34.483 136.669 34.4602L137.189 36.8722C137.024 36.929 136.788 36.9915 136.482 37.0597C136.18 37.1278 135.811 37.1676 135.374 37.179C134.601 37.2017 133.905 37.0852 133.286 36.8295C132.666 36.5682 132.175 36.1648 131.811 35.6193C131.453 35.0739 131.277 34.392 131.283 33.5739V20.7727Z" fill="black"/>
<ellipse cx="16" cy="28" rx="16" ry="17" fill="#0B0B0B"/>
<circle cx="16" cy="28" r="14" fill="#FAF2F2"/>
<circle cx="16" cy="12" r="12" fill="#C91C1C"/>
<circle cx="16" cy="43" r="12" fill="#29159F"/>
</svg>
